<mxfile host="app.diagrams.net" agent="Mozilla/5.0 (Windows NT 10.0; Win64; x64) AppleWebKit/537.36 (KHTML, like Gecko) Chrome/132.0.0.0 Safari/537.36" version="26.0.14">
  <diagram name="Página-1" id="5MVCHF7yKovHBfpewLA_">
    <mxGraphModel dx="880" dy="1637" grid="1" gridSize="10" guides="1" tooltips="1" connect="1" arrows="1" fold="1" page="1" pageScale="1" pageWidth="827" pageHeight="1169" math="0" shadow="0">
      <root>
        <mxCell id="0" />
        <mxCell id="1" parent="0" />
        <mxCell id="gM7VMUysRqwxnafuhTXG-1" value="" style="rounded=0;whiteSpace=wrap;html=1;" vertex="1" parent="1">
          <mxGeometry x="120" y="-360" width="600" height="320" as="geometry" />
        </mxCell>
        <mxCell id="gM7VMUysRqwxnafuhTXG-2" value="Recepção" style="rounded=0;whiteSpace=wrap;html=1;" vertex="1" parent="1">
          <mxGeometry x="120" y="-300" width="120" height="60" as="geometry" />
        </mxCell>
        <mxCell id="gM7VMUysRqwxnafuhTXG-3" value="Consultório 3" style="rounded=0;whiteSpace=wrap;html=1;" vertex="1" parent="1">
          <mxGeometry x="300" y="-240" width="120" height="60" as="geometry" />
        </mxCell>
        <mxCell id="gM7VMUysRqwxnafuhTXG-4" value="Consultório 2" style="rounded=0;whiteSpace=wrap;html=1;" vertex="1" parent="1">
          <mxGeometry x="300" y="-300" width="120" height="60" as="geometry" />
        </mxCell>
        <mxCell id="gM7VMUysRqwxnafuhTXG-5" value="Consultório 1" style="rounded=0;whiteSpace=wrap;html=1;" vertex="1" parent="1">
          <mxGeometry x="300" y="-360" width="120" height="60" as="geometry" />
        </mxCell>
        <mxCell id="gM7VMUysRqwxnafuhTXG-6" value="Consultório 6" style="rounded=0;whiteSpace=wrap;html=1;" vertex="1" parent="1">
          <mxGeometry x="450" y="-240" width="120" height="60" as="geometry" />
        </mxCell>
        <mxCell id="gM7VMUysRqwxnafuhTXG-7" value="Consultório 5" style="rounded=0;whiteSpace=wrap;html=1;" vertex="1" parent="1">
          <mxGeometry x="450" y="-300" width="120" height="60" as="geometry" />
        </mxCell>
        <mxCell id="gM7VMUysRqwxnafuhTXG-8" value="Consultório 4" style="rounded=0;whiteSpace=wrap;html=1;" vertex="1" parent="1">
          <mxGeometry x="450" y="-360" width="120" height="60" as="geometry" />
        </mxCell>
        <mxCell id="gM7VMUysRqwxnafuhTXG-9" value="Sala de convivência" style="rounded=0;whiteSpace=wrap;html=1;" vertex="1" parent="1">
          <mxGeometry x="450" y="-100" width="120" height="60" as="geometry" />
        </mxCell>
        <mxCell id="gM7VMUysRqwxnafuhTXG-10" value="Sala do Rack" style="rounded=0;whiteSpace=wrap;html=1;" vertex="1" parent="1">
          <mxGeometry x="600" y="-360" width="120" height="60" as="geometry" />
        </mxCell>
        <mxCell id="gM7VMUysRqwxnafuhTXG-11" value="Administração" style="rounded=0;whiteSpace=wrap;html=1;" vertex="1" parent="1">
          <mxGeometry x="600" y="-190" width="120" height="60" as="geometry" />
        </mxCell>
        <mxCell id="gM7VMUysRqwxnafuhTXG-12" value="Sala de espera" style="rounded=0;whiteSpace=wrap;html=1;" vertex="1" parent="1">
          <mxGeometry x="120" y="-210" width="120" height="60" as="geometry" />
        </mxCell>
        <mxCell id="gM7VMUysRqwxnafuhTXG-13" value="Raio X / Avaliação" style="rounded=0;whiteSpace=wrap;html=1;" vertex="1" parent="1">
          <mxGeometry x="600" y="-100" width="120" height="60" as="geometry" />
        </mxCell>
        <mxCell id="gM7VMUysRqwxnafuhTXG-14" value="Banheiro Cliente" style="rounded=0;whiteSpace=wrap;html=1;" vertex="1" parent="1">
          <mxGeometry x="120" y="-100" width="120" height="60" as="geometry" />
        </mxCell>
        <mxCell id="gM7VMUysRqwxnafuhTXG-15" value="Banheiro Funcionários" style="rounded=0;whiteSpace=wrap;html=1;" vertex="1" parent="1">
          <mxGeometry x="240" y="-100" width="120" height="60" as="geometry" />
        </mxCell>
        <mxCell id="gM7VMUysRqwxnafuhTXG-16" value="Sala de reunião" style="rounded=0;whiteSpace=wrap;html=1;" vertex="1" parent="1">
          <mxGeometry x="600" y="-270" width="120" height="60" as="geometry" />
        </mxCell>
        <mxCell id="gM7VMUysRqwxnafuhTXG-19" value="" style="endArrow=none;html=1;rounded=0;exitX=-0.002;exitY=0.128;exitDx=0;exitDy=0;exitPerimeter=0;entryX=0;entryY=0;entryDx=0;entryDy=0;strokeColor=#FF0000;strokeWidth=6;" edge="1" parent="1" source="gM7VMUysRqwxnafuhTXG-1" target="gM7VMUysRqwxnafuhTXG-1">
          <mxGeometry width="50" height="50" relative="1" as="geometry">
            <mxPoint x="390" y="-200" as="sourcePoint" />
            <mxPoint x="440" y="-250" as="targetPoint" />
          </mxGeometry>
        </mxCell>
      </root>
    </mxGraphModel>
  </diagram>
</mxfile>
